#!OML:ASF I:\golf\golf\golf 2\Subject 1\2002-09-07\Subject1.ASF
:FULLY-SPECIFIED
:DEGREES
97
root 0.884112 18.1706 -7.09558 10.4498 -4.98174 -7.41443
lowerback -6.42397 0.413978 -0.383096
upperback -0.174031 0.437464 3.98051
thorax 3.39235 0.179957 4.3873
lowerneck -14.7748 2.19154 2.11375
upperneck 41.6148 5.96098 -7.54045
head 18.5395 1.67097 -2.81773
rclavicle 2.78299e-015 3.3197e-014
rhumerus -32.4781 -7.62635 -79.7973
rradius 26.1928
rwrist -7.35074
rhand -22.1973 12.877
rfingers 7.12502
rthumb 4.21828 -17.061
lclavicle 2.78299e-015 3.3197e-014
lhumerus -29.1644 3.48441 87.1013
lradius 29.4218
lwrist 7.02265
lhand -12.5265 34.7301
lfingers 7.12502
lthumb 13.5496 64.2693
rfemur -13.5107 2.25517 23.5942
rtibia 22.5493
rfoot -10.4691 -7.77092
rtoes -5.03369
lfemur -12.7928 3.90057 -15.855
ltibia 24.7194
lfoot -16.5265 4.87187
ltoes -1.51061
98
root 0.9016 18.1677 -7.10333 10.4947 -4.81907 -7.42342
lowerback -6.47053 0.404355 -0.466893
upperback -0.069695 0.424291 4.04906
thorax 3.52684 0.168513 4.50833
lowerneck -14.7538 2.19876 2.0704
upperneck 41.5643 6.00724 -7.58991
head 18.5088 1.67835 -2.82132
rclavicle -1.47349e-014 2.127e-014
rhumerus -32.2464 -7.66372 -79.6863
rradius 26.0914
rwrist -7.15498
rhand -22.1702 13.3607
rfingers 7.12502
rthumb 4.24443 -16.5767
lclavicle -1.47349e-014 2.127e-014
lhumerus -29.1096 3.57567 87.1616
lradius 29.4467
lwrist 6.99284
lhand -12.4796 34.6982
lfingers 7.12502
lthumb 13.5948 64.2343
rfemur -13.7212 2.257 23.5706
rtibia 22.7937
rfoot -10.4487 -7.98855
rtoes -6.47765
lfemur -12.9232 3.98307 -15.8877
ltibia 24.7395
lfoot -16.5892 4.63375
ltoes -1.263
99
root 0.921647 18.1646 -7.10994 10.5181 -4.71069 -7.35967
lowerback -6.42929 0.420464 -0.592474
upperback -0.0232266 0.45342 4.08225
thorax 3.54839 0.179794 4.61753
lowerneck -14.7351 2.13753 1.90085
upperneck 41.6117 5.96138 -7.55253
head 18.5202 1.63881 -2.78318
rclavicle 9.06955e-015 -2.76311e-014
rhumerus -32.1441 -7.50404 -79.6342
rradius 26.0833
rwrist -7.21436
rhand -22.1391 13.2267
rfingers 7.12502
rthumb 4.27446 -16.7101
lclavicle 9.06955e-015 -2.76311e-014
lhumerus -29.0837 3.77624 87.1972
lradius 29.3155
lwrist 6.87648
lhand -12.1015 34.9791
lfingers 7.12502
lthumb 13.9592 64.4905
rfemur -13.899 2.22034 23.4486
rtibia 23.0128
rfoot -10.4876 -8.10031
rtoes -6.855
lfemur -13.032 4.25502 -16.028
ltibia 24.7885
lfoot -16.5839 4.26568
ltoes -1.59365
100
root 0.941539 18.1629 -7.11624 10.4664 -4.63251 -7.34388
lowerback -6.15666 0.487938 -0.469829
upperback -0.0086863 0.542396 3.98782
thorax 3.40449 0.229017 4.4516
lowerneck -14.8094 2.07162 1.7856
upperneck 41.7163 5.84707 -7.40171
head 18.5808 1.5928 -2.71665
rclavicle -2.03754e-015 8.15017e-015
rhumerus -32.1398 -7.47957 -79.7296
rradius 26.1353
rwrist -7.32102
rhand -21.9183 13.0153
rfingers 7.12502
rthumb 4.48762 -16.9172
lclavicle -2.03754e-015 8.15017e-015
lhumerus -29.1277 3.71262 87.0909
lradius 29.2557
lwrist 6.86375
lhand -11.8431 35.4487
lfingers 7.12502
lthumb 14.2082 64.9428
rfemur -13.9868 2.12336 23.3831
rtibia 23.2302
rfoot -10.5049 -8.1691
rtoes -7.70194
lfemur -13.0596 4.53024 -16.1068
ltibia 24.8465
lfoot -16.5399 3.90952
ltoes -1.81139
101
root 0.961733 18.1628 -7.12123 10.3732 -4.58442 -7.33071
lowerback -5.90265 0.554326 -0.339839
upperback 0.0442437 0.628431 3.88944
thorax 3.3119 0.27563 4.27787
lowerneck -14.7908 2.05182 1.79329
upperneck 41.7395 5.78766 -7.33099
head 18.58 1.58095 -2.69625
rclavicle -1.31819e-014 8.24956e-015
rhumerus -32.1684 -7.39194 -79.8674
rradius 26.2955
rwrist -7.40158
rhand -21.8177 12.9296
rfingers 7.12502
rthumb 4.58482 -17.0008
lclavicle -1.31819e-014 8.24956e-015
lhumerus -29.2048 3.59306 86.9814
lradius 29.2667
lwrist 6.98422
lhand -12.006 35.5291
lfingers 7.12502
lthumb 14.0512 65.0342
rfemur -14.0287 2.05286 23.3095
rtibia 23.4561
rfoot -10.5667 -8.18528
rtoes -7.54565
lfemur -13.0432 4.66234 -16.1741
ltibia 24.911
lfoot -16.5752 3.6519
ltoes -1.23464
102
root 0.981486 18.1633 -7.12732 10.3492 -4.44456 -7.20844
lowerback -5.83068 0.582243 -0.474671
upperback 0.0836188 0.676705 3.8488
thorax 3.30743 0.297564 4.31523
lowerneck -14.6547 2.02043 1.85909
upperneck 41.7501 5.72653 -7.35161
head 18.5464 1.56896 -2.73027
rclavicle -6.17475e-015 -1.21259e-014
rhumerus -32.1961 -7.29819 -79.8993
rradius 26.4065
rwrist -7.40738
rhand -22.0316 12.9107
rfingers 7.12502
rthumb 4.37824 -17.024
lclavicle -6.17475e-015 -1.21259e-014
lhumerus -29.2878 3.49698 86.977
lradius 29.2243
lwrist 7.02449
lhand -12.2068 35.3779
lfingers 7.12502
lthumb 13.8577 64.8962
rfemur -14.1475 1.87007 23.1247
rtibia 23.6714
rfoot -10.6869 -8.04431
rtoes -4.89444
lfemur -13.144 4.6547 -16.3626
ltibia 24.9946
lfoot -16.5829 3.47806
ltoes -1.07313
103
root 1.00021 18.1604 -7.13286 10.3363 -4.27102 -7.11928
lowerback -5.75328 0.619757 -0.571469
upperback 0.118941 0.735281 3.80724
thorax 3.2952 0.325411 4.33061
lowerneck -14.5587 1.95182 1.98052
upperneck 41.7714 5.61976 -7.44276
head 18.5326 1.53746 -2.81822
rclavicle -2.14936e-015 -1.2424e-014
rhumerus -32.1921 -7.3524 -79.8991
rradius 26.4433
rwrist -7.34454
rhand -22.2781 13.2844
rfingers 7.12502
rthumb 4.14021 -16.6551
lclavicle -2.14936e-015 -1.2424e-014
lhumerus -29.2897 3.39589 86.9472
lradius 29.0825
lwrist 6.92713
lhand -12.1 35.2896
lfingers 7.12502
lthumb 13.9606 64.8009
rfemur -14.2688 1.68841 22.9903
rtibia 23.8871
rfoot -10.7473 -7.9513
rtoes -2.67975
lfemur -13.2412 4.54791 -16.5069
ltibia 25.0763
lfoot -16.5781 3.46836
ltoes -1.92046
104
root 1.01929 18.1532 -7.13539 10.2482 -4.22145 -7.16099
lowerback -5.47951 0.674445 -0.414614
upperback 0.177682 0.802675 3.74726
thorax 3.19959 0.362792 4.17941
lowerneck -14.6432 1.93476 1.97839
upperneck 41.838 5.58686 -7.40439
head 18.5918 1.52747 -2.80931
rclavicle 2.14812e-014 6.65929e-015
rhumerus -32.1229 -7.26567 -80.0126
rradius 26.5131
rwrist -7.45709
rhand -22.3011 13.9428
rfingers 7.12502
rthumb 4.11805 -15.9972
lclavicle 2.14812e-014 6.65929e-015
lhumerus -29.264 3.35549 86.8207
lradius 28.9616
lwrist 6.90759
lhand -12.3624 35.4538
lfingers 7.12502
lthumb 13.7078 64.9823
rfemur -14.3255 1.62999 22.9914
rtibia 24.1495
rfoot -10.7631 -8.01648
rtoes -2.69261
lfemur -13.1802 4.44584 -16.4965
ltibia 25.1195
lfoot -16.6931 3.47081
ltoes -1.89118
105
root 1.0375 18.1483 -7.13821 10.1583 -4.19206 -7.21061
lowerback -5.60055 0.673819 -0.463114
upperback 0.498058 0.789305 3.86653
thorax 3.59874 0.345494 4.3394
lowerneck -14.8544 1.94099 1.73419
upperneck 41.7501 5.677 -7.3991
head 18.5968 1.52193 -2.73901
rclavicle -2.6339e-015 -1.08338e-014
rhumerus -31.6046 -6.78696 -80.0467
rradius 26.5929
rwrist -7.80644
rhand -22.0338 13.8764
rfingers 7.12502
rthumb 4.37609 -16.0584
lclavicle -2.6339e-015 -1.08338e-014
lhumerus -28.9001 3.70313 86.8908
lradius 28.8442
lwrist 6.7289
lhand -11.9533 35.3202
lfingers 7.12502
lthumb 14.102 64.8217
rfemur -14.4146 1.5125 22.9937
rtibia 24.4573
rfoot -10.8415 -8.00003
rtoes -2.79229
lfemur -13.1086 4.46482 -16.4869
ltibia 25.1504
lfoot -16.817 3.36969
ltoes -1.6
106
root 1.05768 18.1464 -7.13961 10.0725 -4.12106 -7.11818
lowerback -5.56974 0.69399 -0.604177
upperback 0.643768 0.821455 3.88718
thorax 3.72797 0.355086 4.44615
lowerneck -14.9096 1.90189 1.572
upperneck 41.8087 5.65088 -7.32782
head 18.6366 1.49425 -2.68251
rclavicle -2.90971e-014 2.88238e-014
rhumerus -31.4784 -6.42777 -80.0902
rradius 26.7548
rwrist -8.01829
rhand -21.8529 13.4385
rfingers 7.12502
rthumb 4.5508 -16.4926
lclavicle -2.90971e-014 2.88238e-014
lhumerus -28.8482 3.90405 86.8944
lradius 28.7578
lwrist 6.51515
lhand -12.3625 34.9754
lfingers 7.12502
lthumb 13.7076 64.504
rfemur -14.5208 1.2591 22.8322
rtibia 24.7939
rfoot -10.9359 -7.88966
rtoes -3.52849
lfemur -13.0731 4.61306 -16.6589
ltibia 25.2074
lfoot -16.8733 3.17476
ltoes -2.04818
107
root 1.0794 18.144 -7.14409 10.0455 -4.06471 -7.01253
lowerback -5.35299 0.785347 -0.589349
upperback 0.62316 0.951533 3.7534
thorax 3.57591 0.424156 4.30261
lowerneck -14.858 1.80869 1.56513
upperneck 41.9448 5.45358 -7.17258
head 18.6789 1.43636 -2.65137
rclavicle 1.0225e-014 -3.67752e-015
rhumerus -31.6462 -6.42968 -80.2071
rradius 26.995
rwrist -8.05962
rhand -21.828 13.2244
rfingers 7.12502
rthumb 4.57487 -16.7062
lclavicle 1.0225e-014 -3.67752e-015
lhumerus -29.0539 3.59918 86.7916
lradius 28.79
lwrist 6.60002
lhand -12.4553 35.1449
lfingers 7.12502
lthumb 13.6182 64.6794
rfemur -14.7334 0.994632 22.6581
rtibia 25.1859
rfoot -11.045 -7.75221
rtoes -3.24271
lfemur -13.1268 4.75346 -16.8512
ltibia 25.2753
lfoot -16.9035 2.97009
ltoes -2.56245
